<svg width="512" height="512" version="1.1" xmlns="http://www.w3.org/2000/svg" desc="Created with imagetracer.js version 1.2.6" ><path fill="rgb(221,221,214)" stroke="rgb(221,221,214)" stroke-width="1" opacity="1" d="M 272.5 86 L 275 86.5 L 272.5 87 L 272.5 86 Z " /><path fill="rgb(221,221,214)" stroke="rgb(221,221,214)" stroke-width="1" opacity="1" d="M 353.5 111 L 354.5 113 L 353.5 111 Z " /><path fill="rgb(221,221,214)" stroke="rgb(221,221,214)" stroke-width="1" opacity="1" d="M 358.5 115 L 366.5 124 L 358.5 115 Z " /><path fill="rgb(221,221,214)" stroke="rgb(221,221,214)" stroke-width="1" opacity="1" d="M 266.5 126 L 268.5 129 L 266.5 126 Z " /><path fill="rgb(221,221,214)" stroke="rgb(221,221,214)" stroke-width="1" opacity="1" d="M 369.5 127 L 370.5 129 L 369.5 127 Z " /><path fill="rgb(221,221,214)" stroke="rgb(221,221,214)" stroke-width="1" opacity="1" d="M 371.5 130 L 372.5 132 L 371.5 130 Z " /><path fill="rgb(221,221,214)" stroke="rgb(221,221,214)" stroke-width="1" opacity="1" d="M 274.5 134 L 276.5 137 L 274.5 134 Z " /><path fill="rgb(221,221,214)" stroke="rgb(221,221,214)" stroke-width="1" opacity="1" d="M 278.5 139 L 279.5 141 L 278.5 139 Z " /><path fill="rgb(221,221,214)" stroke="rgb(221,221,214)" stroke-width="1" opacity="1" d="M 384.5 172 L 385 180.5 L 384 180.5 L 384.5 172 Z " /><path fill="rgb(221,221,214)" stroke="rgb(221,221,214)" stroke-width="1" opacity="1" d="M 293.5 205 L 294 207.5 L 293 207.5 L 293.5 205 Z " /><path fill="rgb(221,221,214)" stroke="rgb(221,221,214)" stroke-width="1" opacity="1" d="M 370.5 221 L 369.5 223 L 370.5 221 Z " /><path fill="rgb(221,221,214)" stroke="rgb(221,221,214)" stroke-width="1" opacity="1" d="M 367.5 225 L 358.5 235 L 367.5 225 Z " /><path fill="rgb(221,221,214)" stroke="rgb(221,221,214)" stroke-width="1" opacity="1" d="M 354.5 237 L 353.5 239 L 354.5 237 Z " /><path fill="rgb(221,221,214)" stroke="rgb(221,221,214)" stroke-width="1" opacity="1" d="M 351.5 239 L 350.5 241 L 351.5 239 Z " /><path fill="rgb(221,221,214)" stroke="rgb(221,221,214)" stroke-width="1" opacity="1" d="M 280.5 246 L 279.5 248 L 280.5 246 Z " /><path fill="rgb(221,221,214)" stroke="rgb(221,221,214)" stroke-width="1" opacity="1" d="M 278.5 250 L 279.5 252 L 278.5 250 Z " /><path fill="rgb(221,221,214)" stroke="rgb(221,221,214)" stroke-width="1" opacity="1" d="M 281.5 254 L 282.5 256 L 281.5 254 Z " /><path fill="rgb(221,221,214)" stroke="rgb(221,221,214)" stroke-width="1" opacity="1" d="M 293.5 257 L 297 257.5 L 293.5 258 L 293.5 257 Z " /><path fill="rgb(221,221,214)" stroke="rgb(221,221,214)" stroke-width="1" opacity="1" d="M 246.5 277 L 264 277.5 L 246.5 278 L 246.5 277 Z " /><path fill="rgb(221,221,214)" stroke="rgb(221,221,214)" stroke-width="1" opacity="1" d="M 244.5 278 L 243.5 280 L 244.5 278 Z " /><path fill="rgb(221,221,214)" stroke="rgb(221,221,214)" stroke-width="1" opacity="1" d="M 124.5 425 L 218 425.5 L 124.5 426 L 124.5 425 Z " /><path fill="rgb(0,0,0)" stroke="rgb(0,0,0)" stroke-width="1" opacity="0.0784313725490196" d="M 0 0 L 37 0.5 Q 20 3.5 11 14.5 L 2 29.5 L 0.5 38 L 0 0 Z " /><path fill="rgb(0,0,0)" stroke="rgb(0,0,0)" stroke-width="1" opacity="0.0784313725490196" d="M 474.5 0 L 512 0 L 512 36.5 L 511 36.5 Q 508.3 19.7 497.5 11 L 482.5 2 L 474.5 1 L 474.5 0 Z " /><path fill="rgb(0,0,0)" stroke="rgb(0,0,0)" stroke-width="1" opacity="0.0784313725490196" d="M 511.5 474 L 512 512 L 475 511.5 Q 492 508.5 501 497.5 L 510 482.5 L 511.5 474 Z " /><path fill="rgb(0,0,0)" stroke="rgb(0,0,0)" stroke-width="1" opacity="0.0784313725490196" d="M 0.5 475 Q 3.5 492 14.5 501 L 29.5 510 L 38 511.5 L 0 512 L 0.5 475 Z " /><path fill="rgb(0,0,0)" stroke="rgb(0,0,0)" stroke-width="1" opacity="1" d="M 37.5 0 L 473.5 0 Q 491.2 3.3 501 14.5 L 510 29.5 L 512 37.5 L 512 473.5 Q 508.7 491.2 497.5 501 L 482.5 510 L 474.5 512 L 38.5 512 Q 20.8 508.7 11 497.5 L 2 482.5 L 0 474.5 L 0 38.5 Q 3.3 20.8 14.5 11 L 29.5 2 L 37.5 0 Z M 124 85 L 124 426 L 219 426 L 219 426 L 219 109 L 241 113 Q 255 118 266 126 Q 278 136 285 151 L 291 168 L 293 178 L 293 187 L 294 188 L 293 210 L 290 225 L 282 244 L 278 249 L 278 251 L 284 258 L 301 258 L 326 253 Q 343 247 357 237 Q 368 228 376 215 L 383 197 L 385 186 L 385 166 L 382 151 Q 378 136 369 126 Q 358 112 342 103 L 317 93 L 295 88 L 280 87 L 279 86 L 267 86 L 266 85 L 124 85 Z M 246 277 L 241 282 L 241 285 L 309 426 L 311 427 L 413 427 L 416 422 L 342 280 L 340 277 L 246 277 Z " /><path fill="rgb(247,247,239)" stroke="rgb(247,247,239)" stroke-width="1" opacity="1" d="M 124 86 L 271.5 86 L 272.5 87 L 282.5 87 L 283.5 88 L 296.5 89 L 326.5 97 L 343.5 105 Q 358.6 113.4 369 126.5 Q 379.1 138.9 383 157.5 Q 381.7 162.2 384 163.5 L 384 187.5 Q 378.3 220.8 355.5 237 Q 329.7 257.2 284.5 258 L 278 249.5 L 281 246.5 L 288 232.5 L 293 214.5 Q 291.5 209 294 207.5 L 294 179.5 L 290 161.5 L 283 145.5 Q 276.6 134 266.5 126 Q 247.9 110.8 218 108 L 218 424.5 L 217.5 425 L 124 425 L 124 86 Z " /><path fill="rgb(247,247,239)" stroke="rgb(247,247,239)" stroke-width="1" opacity="1" d="M 245.5 278 L 339.5 278 L 341 279.5 L 415 421.5 L 411.5 426 L 310.5 426 L 310 424.5 L 241 282.5 L 245.5 278 Z " /><path fill="rgb(141,141,137)" stroke="rgb(141,141,137)" stroke-width="1" opacity="1" d="M 124.5 85 L 266 85.5 L 124.5 86 L 124.5 85 Z " /><path fill="rgb(141,141,137)" stroke="rgb(141,141,137)" stroke-width="1" opacity="1" d="M 275.5 86 L 279 86.5 L 275.5 87 L 275.5 86 Z " /><path fill="rgb(141,141,137)" stroke="rgb(141,141,137)" stroke-width="1" opacity="1" d="M 285.5 87 L 288 87.5 L 285.5 88 L 285.5 87 Z " /><path fill="rgb(141,141,137)" stroke="rgb(141,141,137)" stroke-width="1" opacity="1" d="M 292.5 88 L 295 88.5 L 292.5 89 L 292.5 88 Z " /><path fill="rgb(141,141,137)" stroke="rgb(141,141,137)" stroke-width="1" opacity="1" d="M 218 108 L 221 108.5 L 219 109 L 218.5 426 L 218 108 Z " /><path fill="rgb(141,141,137)" stroke="rgb(141,141,137)" stroke-width="1" opacity="1" d="M 224.5 109 L 227 109.5 L 224.5 110 L 224.5 109 Z " /><path fill="rgb(141,141,137)" stroke="rgb(141,141,137)" stroke-width="1" opacity="1" d="M 356.5 113 L 357.5 115 L 356.5 113 Z " /><path fill="rgb(141,141,137)" stroke="rgb(141,141,137)" stroke-width="1" opacity="1" d="M 260.5 122 L 261.5 124 L 260.5 122 Z " /><path fill="rgb(141,141,137)" stroke="rgb(141,141,137)" stroke-width="1" opacity="1" d="M 263.5 124 L 264.5 126 L 263.5 124 Z " /><path fill="rgb(141,141,137)" stroke="rgb(141,141,137)" stroke-width="1" opacity="1" d="M 367.5 124 L 368.5 126 L 367.5 124 Z " /><path fill="rgb(141,141,137)" stroke="rgb(141,141,137)" stroke-width="1" opacity="1" d="M 269.5 129 L 273.5 134 L 269.5 129 Z " /><path fill="rgb(141,141,137)" stroke="rgb(141,141,137)" stroke-width="1" opacity="1" d="M 276.5 137 L 277.5 139 L 276.5 137 Z " /><path fill="rgb(141,141,137)" stroke="rgb(141,141,137)" stroke-width="1" opacity="1" d="M 383.5 158 L 384 160.5 L 383 160.5 L 383.5 158 Z " /><path fill="rgb(141,141,137)" stroke="rgb(141,141,137)" stroke-width="1" opacity="1" d="M 384.5 165 L 385 171.5 L 384 171.5 L 384.5 165 Z " /><path fill="rgb(141,141,137)" stroke="rgb(141,141,137)" stroke-width="1" opacity="1" d="M 292.5 174 L 293 176.5 L 292 176.5 L 292.5 174 Z " /><path fill="rgb(141,141,137)" stroke="rgb(141,141,137)" stroke-width="1" opacity="1" d="M 293.5 181 L 294 186.5 L 293 186.5 L 293.5 181 Z " /><path fill="rgb(141,141,137)" stroke="rgb(141,141,137)" stroke-width="1" opacity="1" d="M 384.5 181 L 385 185.5 L 384 185.5 L 384.5 181 Z " /><path fill="rgb(141,141,137)" stroke="rgb(141,141,137)" stroke-width="1" opacity="1" d="M 293.5 200 L 294 204.5 L 293 204.5 L 293.5 200 Z " /><path fill="rgb(141,141,137)" stroke="rgb(141,141,137)" stroke-width="1" opacity="1" d="M 292.5 210 L 293 212.5 L 292 212.5 L 292.5 210 Z " /><path fill="rgb(141,141,137)" stroke="rgb(141,141,137)" stroke-width="1" opacity="1" d="M 369.5 223 L 368.5 225 L 369.5 223 Z " /><path fill="rgb(141,141,137)" stroke="rgb(141,141,137)" stroke-width="1" opacity="1" d="M 357.5 235 L 356.5 237 L 357.5 235 Z " /><path fill="rgb(141,141,137)" stroke="rgb(141,141,137)" stroke-width="1" opacity="1" d="M 282.5 256 L 283.5 258 L 282.5 256 Z " /><path fill="rgb(141,141,137)" stroke="rgb(141,141,137)" stroke-width="1" opacity="1" d="M 305.5 256 L 309 256.5 L 305.5 257 L 305.5 256 Z " /><path fill="rgb(141,141,137)" stroke="rgb(141,141,137)" stroke-width="1" opacity="1" d="M 297.5 257 L 301 257.5 L 297.5 258 L 297.5 257 Z " /><path fill="rgb(141,141,137)" stroke="rgb(141,141,137)" stroke-width="1" opacity="1" d="M 264.5 277 L 340 277.5 L 264.5 278 L 264.5 277 Z " /><path fill="rgb(141,141,137)" stroke="rgb(141,141,137)" stroke-width="1" opacity="1" d="M 242.5 280 L 241.5 282 L 242.5 280 Z " /><path fill="rgb(141,141,137)" stroke="rgb(141,141,137)" stroke-width="1" opacity="1" d="M 414.5 423 L 413.5 425 L 414.5 423 Z " /><path fill="rgb(141,141,137)" stroke="rgb(141,141,137)" stroke-width="1" opacity="1" d="M 309.5 425 L 310.5 426 L 413 426.5 L 310.5 427 L 309.5 425 Z " /></svg>